<?xml version="1.0" standalone="no"?><!DOCTYPE svg PUBLIC "-//W3C//DTD SVG 1.1//EN" "http://www.w3.org/Graphics/SVG/1.1/DTD/svg11.dtd"><svg t="1577238691351" class="icon" viewBox="0 0 1024 1024" version="1.1" xmlns="http://www.w3.org/2000/svg" p-id="2262" xmlns:xlink="http://www.w3.org/1999/xlink" width="128" height="128"><defs><style type="text/css"></style></defs><path d="M813.314 240.552H109.407c-24.661 0-44.72 20.166-44.72 45.046v551.307c0 24.818 20.059 45.039 44.72 45.039h703.908c24.687 0 44.712-20.2 44.712-45.039V285.57c-0.053-24.909-20.025-45.018-44.713-45.018z m-44.697 90.023V736.39L666.386 611.429c-3.772-4.561-10.423-5.396-15.196-1.902l-118.918 87.436-204.189-200.016c-2.376-2.339-5.656-3.36-8.834-3.153-3.326 0.292-6.256 2.058-8.126 4.745L154.112 724.74V330.575h614.505z m-268.151 168.78c0-40.345 32.58-73.167 72.604-73.167 40.071 0 72.596 32.823 72.596 73.167 0 40.25-32.525 73.103-72.596 73.103-40.024 0-72.604-32.853-72.604-73.103z m422.745 219.358c-18.509 0-33.513-15.119-33.513-33.716V208.645H193.227c-18.509 0-33.5-15.069-33.5-33.711 0-18.628 14.991-33.711 33.5-33.711h729.984c18.497 0 33.529 15.083 33.529 33.711v510.104c-0.001 18.556-15.032 33.675-33.529 33.675z" p-id="2263"></path></svg>