<?xml version="1.0" standalone="no"?><!DOCTYPE svg PUBLIC "-//W3C//DTD SVG 1.1//EN" "http://www.w3.org/Graphics/SVG/1.1/DTD/svg11.dtd"><svg t="1593506009915" class="icon" viewBox="0 0 1024 1024" version="1.1" xmlns="http://www.w3.org/2000/svg" p-id="2303" xmlns:xlink="http://www.w3.org/1999/xlink" width="128" height="128"><defs><style type="text/css"></style></defs><path d="M511.2 365.2c-81.9 0-148.9 67-148.9 148.9S429.3 663 511.2 663s148.9-67 148.9-148.9-67-148.9-148.9-148.9z m0 242c-52.1 0-93.1-41-93.1-93.1 0-52.1 41-93.1 93.1-93.1 52.1 0 93.1 41 93.1 93.1 0 52.1-41 93.1-93.1 93.1z m0 0" p-id="2304"></path><path d="M868.6 417.3H809s-7.4-3.7-7.4-7.4l-11.2-29.8v-7.4l41-41c11.2-11.2 14.9-22.3 14.9-37.2 0-14.9-3.7-26.1-14.9-37.2L768.1 194c-18.6-18.6-55.9-18.6-74.5 0l-41 41s-3.7 3.7-11.2 0l-29.8-11.2s-3.7-3.7-3.7-7.4v-59.6c0-29.8-22.3-52.1-52.1-52.1h-89.4c-29.8 0-52.1 22.3-52.1 52.1v59.6s-3.7 7.4-7.4 7.4L377.1 235h-7.4l-41-41c-11.2-11.2-22.3-14.9-37.2-14.9-14.9 0-26.1 3.7-37.2 14.9L191 257.3c-11.2 11.2-14.9 22.3-14.9 37.2 0 14.9 3.7 26.1 14.9 37.2l41 41s3.7 7.4 0 11.2L220.8 410s-3.7 3.7-7.4 3.7h-59.6c-29.8 3.7-52.1 26.1-52.1 55.9v93.1c0 29.8 22.3 52.1 52.1 52.1h59.6s7.4 3.7 7.4 7.4L232 652v7.4l-41 41c-11.2 11.2-14.9 22.3-14.9 37.2 0 14.9 3.7 26.1 14.9 37.2l63.3 63.3c18.6 18.6 55.9 18.6 74.5 0l41-41s3.7-3.7 11.2 0l29.8 11.2s3.7 3.7 3.7 7.4v59.6c0 26.1 22.3 48.4 52.1 48.4h93.1c29.8 0 52.1-22.3 52.1-52.1V812s3.7-7.4 7.4-7.4l29.8-11.2h7.4l41 41c18.6 18.6 55.9 18.6 74.5 0l63.3-63.3c11.2-11.2 14.9-22.3 14.9-37.2 0-14.9-3.7-26.1-14.9-37.2l-41-41s-3.7-7.4 0-11.2l11.2-29.8s3.7-3.7 7.4-3.7h59.6c29.8 0 52.1-22.3 52.1-52.1v-89.4c-3.7-29.9-26.1-52.2-55.9-52.2zM749.5 596l-11.2 26.1c-11.2 22.3-7.4 52.1 11.2 70.8l41 41-59.6 59.6-41-41c-18.6-18.6-52.1-22.3-70.8-11.2L593 752.5c-26.1 7.4-41 33.5-41 59.6V868h-81.9v-56c0-26.1-18.6-52.1-41-59.6L403 741.2c-22.3-11.2-55.9-7.4-70.7 11.2l-41 41-59.6-59.6 41-41c14.9-14.9 22.3-48.4 11.2-67l-11.2-26.1c-7.4-26.1-33.5-41-59.6-41h-55.9v-85.6h55.9c26.1 0 52.1-18.6 59.6-41l11.2-26.1c11.2-22.3 3.7-55.9-14.9-70.7l-37.2-41 59.6-59.6 41 41c14.9 14.9 52.1 18.6 67 11.2l26.1-11.2c26.1-7.4 44.7-33.5 44.7-59.6v-55.9h85.6v55.9c0 26.1 18.6 52.1 41 59.6l26.1 11.2c22.3 11.2 55.9 7.4 70.8-11.2l41-41 59.6 59.6-41 41c-18.6 14.9-26.1 48.4-14.9 67l11.2 26.1c7.4 26.1 33.5 41 59.6 41h55.9V555h-55.9c-26.2 0.1-52.3 18.7-59.7 41z m0 0" p-id="2305"></path></svg>