<?xml version="1.0" standalone="no"?><!DOCTYPE svg PUBLIC "-//W3C//DTD SVG 1.1//EN" "http://www.w3.org/Graphics/SVG/1.1/DTD/svg11.dtd"><svg t="1593422132647" class="icon" viewBox="0 0 1024 1024" version="1.1" xmlns="http://www.w3.org/2000/svg" p-id="2222" xmlns:xlink="http://www.w3.org/1999/xlink" width="128" height="128"><defs><style type="text/css"></style></defs><path d="M511.143 824.485c177.059-1.872 266.263-30.45 309.014-73.719 40.388-40.895 39.034-98.86 33.276-159.824-4.646-48.913-31.033-101.97-72.423-149.317-38.858-44.438-90.718-83.57-150.184-109.48-15.449 8.924-32.696 16.172-51.235 21.284h-0.068c-21.362 5.95-44.437 9.21-68.378 9.21-23.94 0-47.013-3.259-68.353-9.21h-0.089c-18.539-5.112-35.789-12.36-51.239-21.284-59.464 25.91-111.326 65.042-150.182 109.48-41.389 47.347-67.776 100.404-72.4 149.317-5.779 60.963-7.136 118.929 33.255 159.824 42.745 43.268 131.95 71.847 309.006 73.719z m336.534-46.886c-49.485 50.103-147.252 83.108-336.377 85.135h-0.312c-189.127-2.027-286.892-35.032-336.374-85.135-51.883-52.526-50.816-119.857-44.169-190.117 5.4-57.02 35.144-117.676 81.649-170.885 44.525-50.96 104.699-95.467 173.656-123.624l9.402-3.835 8.514 5.574c14.183 9.232 30.942 16.723 49.481 21.856l-0.021 0.022c17.848 4.935 37.41 7.667 58.016 7.667 20.608 0 40.168-2.732 58.02-7.667l-0.023-0.022c18.563-5.134 35.302-12.624 49.482-21.856l8.537-5.574 9.382 3.835c68.952 28.157 129.129 72.664 173.655 123.624 46.503 53.209 76.247 113.865 81.647 170.885 6.649 70.26 7.715 137.59-44.165 190.117z" fill="" p-id="2223"></path><path d="M412.357 309.63c0.578 10.53-7.58 19.565-18.205 20.16-10.67 0.572-19.784-7.514-20.361-18.067 0-0.11-2.312-38.183-13.695-80.287-6.092-22.538-28.255-43.91-46.06-61.14-12.849-12.382-23.874-23.046-29.163-33.909l-0.556-1.298c-4.202-9.3-4.758-18.684-2.49-27.322 1.734-6.654 5.091-12.668 9.624-17.714 4.18-4.671 9.56-8.638 15.739-11.59l-0.022-0.043c11.315-5.375 25.475-7.227 39.99-3.48 11.894 3.04 28.411 6.674 44.016 5.662 12.96-0.86 25.585-5.178 33.7-16.834 14.515-20.842 30.499-32.608 45.704-39.195 15.515-6.742 29.044-8.976 40.566-7.977 20.731 1.797 28.631 8.065 42.548 22.386 4.29 4.406 9.38 9.649 15.583 15.113 7.069 6.235 20.675 7.49 35.124 6.61 17.27-1.014 35.342-5.31 47.79-8.504 14.517-3.746 28.675-1.896 39.991 3.48 0.42 0.221 0.824 0.44 1.222 0.66 5.671 2.866 10.604 6.61 14.495 10.973 4.532 5.046 7.868 11.061 9.624 17.693 2.357 9.055 1.668 18.837-3.048 28.576l-0.041 0.045 0.04 0.043c-3.754 7.712-10.334 17.89-18.181 30.01-15.78 24.366-37.144 57.392-44.502 84.645-10.736 39.703-3.468 79.45-3.446 79.583 1.534 10.444-5.757 20.18-16.338 21.724-10.56 1.543-20.386-5.729-21.918-16.172-0.021-0.132-8.625-47.016 4.334-95.004 8.914-32.96 32.166-68.918 49.372-95.488 7.18-11.104 13.228-20.447 15.893-25.955h0.024c0.487-0.969 0.597-1.807 0.441-2.424-0.132-0.485-0.533-1.123-1.13-1.807-0.8-0.902-1.826-1.696-2.961-2.314l-0.663-0.285c-3.625-1.74-8.404-2.27-13.517-0.97-14.092 3.636-34.679 8.482-55.217 9.695-23.317 1.409-46.725-1.897-62.932-16.173-7.845-6.897-13.7-12.151-17.85-17.23-5.053-6.184-9.026-9.441-14.738-10.53-7.912-1.512-16.07 0.705-25.14 4.647-9.38 4.078-19.539 11.744-29.364 25.867-16.206 23.288-39.524 31.792-63.041 33.336-20.896 1.364-41.46-3.086-56.133-6.874-5.111-1.322-9.87-0.77-13.513 0.969v-0.043l-0.068 0.043a11.126 11.126 0 0 0-3.557 2.6c-0.6 0.661-1 1.3-1.135 1.806-0.13 0.507-0.065 1.169 0.223 1.94l0.245 0.485c2.334 4.847 11.091 13.262 21.274 23.11 21.251 20.514 47.705 46.071 56.508 78.679 12.336 45.588 14.915 87.98 14.915 88.089z" fill="" p-id="2224"></path><path d="M356.894 214.052c-9.935-3.745-14.915-14.805-11.114-24.63 3.778-9.872 14.939-14.784 24.854-11.017 31.166 11.897 44.28-2.006 56.93-15.378l0.979-0.97c13.581-14.343 27.14-28.07 52.192-29.347v-0.022c31.056-1.565 43.591 11.654 56.597 25.447 7.312 7.755 14.958 15.818 31.787 15.775 15.226-0.043 33.542-11.7 50.682-27.32 25.987-23.663 47.593-55.126 54.617-72.795 3.869-9.871 15.072-14.717 25.033-10.885 9.913 3.834 14.824 14.96 10.936 24.81-8.626 21.724-34.19 59.532-64.42 87.072-23.432 21.327-50.485 37.234-76.848 37.323-33.455 0.11-46.971-14.167-59.93-27.893-6.737-7.14-13.203-13.97-26.499-13.31h-0.065c-9.736 0.488-17.805 8.638-25.966 17.254-0.309 0.373-0.619 0.749-0.976 1.123-21.295 22.516-43.392 45.915-98.79 24.763zM851.055 255.121c8.378 6.522 9.825 18.573 3.242 26.88-6.6 8.328-18.76 9.761-27.139 3.216-0.065-0.043-25.742-19.388-75.402-16.677-10.493 0.55-21.633 3.018-32.657 6.587 11.803 0.793 23.609 2.556 34.747 5.64 61.084 16.878 87.47 62.839 87.54 62.97 5.18 9.21 1.822 20.843-7.492 26-9.315 5.111-21.075 1.806-26.232-7.448-0.045-0.065-18.428-32.014-64.112-44.64-48.235-13.305-115.3 4.364-115.48 4.408l-0.021-0.023c-7.425 1.83-8.117-3.208-12.853-9.728-6.223-8.549-6.89-20.809 1.759-26.957 0.2-0.154 70.134-51.62 132.689-55.036 64.02-3.48 101.298 24.72 101.41 24.808zM498.717 679.335H431.877v-39.833H498.717v-26.218H431.877v-33.447h46.146L418.25 473.749l-2.023-3.636H459.817l0.689 1.28 54.84 99.321 49.927-99.236 0.668-1.365H611.287l-1.933 3.615-56.84 106.109h45.746v33.447h-67.087v26.218h67.087v39.833h-67.087V723.4H498.717v-2.469z" fill="" p-id="2225"></path></svg>