<svg t="1597307711347" class="icon" viewBox="0 0 1024 1024" version="1.1" xmlns="http://www.w3.org/2000/svg" p-id="10021" width="200" height="200"><path d="M295.90528 829.7984c-1.77152 0-3.54304 0.18432-5.2736 0.55296-6.62528 1.42336-12.288 5.55008-15.96416 11.60192-7.3216 12.17536 1.97632 30.2592 15.19616 38.27712A429.3632 429.3632 0 0 0 512 941.95712c114.85184 0 222.84288-44.7488 304.09728-125.99296 81.2544-81.2544 125.99296-189.24544 125.99296-304.09728-0.12288-114.81088-44.86144-222.72-125.99296-303.85152C734.85312 126.78144 626.85184 82.03264 512 82.03264c-114.85184 0-222.84288 44.7488-304.09728 126.0032-81.24416 81.24416-125.99296 189.2352-125.99296 304.08704a428.7488 428.7488 0 0 0 69.55008 234.65984c3.97312 6.10304 9.6256 10.24 15.90272 11.66336 6.38976 1.45408 12.98432 0.12288 19.06688-3.84 14.65344-9.55392 2.27328-31.04768-1.87392-37.39648a373.98528 373.98528 0 0 1-60.85632-205.07648c0-50.56512 10.5984-100.39296 31.49824-148.1216 20.10112-45.8752 48.61952-87.47008 84.79744-123.648 36.16768-36.17792 77.7728-64.70656 123.648-84.79744 47.7184-20.89984 97.54624-31.50848 148.1216-31.50848s100.41344 10.5984 148.16256 31.488c45.89568 20.08064 87.52128 48.60928 123.72992 84.76672 36.20864 36.17792 64.768 77.7728 84.87936 123.63776 20.93056 47.72864 31.5392 97.57696 31.5392 148.1728 0 50.5856-10.5984 100.44416-31.50848 148.1728-20.09088 45.8752-48.61952 87.47008-84.79744 123.63776-36.17792 36.16768-77.78304 64.68608-123.648 84.76672-47.7184 20.8896-97.54624 31.47776-148.1216 31.47776-80.11776 0-160.6144-41.43104-201.472-66.14016a28.2624 28.2624 0 0 0-14.62272-4.23936z" p-id="10022"></path><path d="M611.9936 249.56928l-229.888 248.48384 114.9952 24.07424-93.3888 223.0784 238.19264-243.18976-107.90912-23.32672 77.99808-229.12z m19.6096-48.5888" p-id="10023"></path></svg>