<svg t="1597307909692" class="icon" viewBox="0 0 1024 1024" version="1.1" xmlns="http://www.w3.org/2000/svg" p-id="12123" width="200" height="200"><path d="M447.8544353 613.63323238l38.04304055-119.68285016-142.45313722-156.89283139-47.76206547 126.06963797 126.90269725 0.83305929-129.6795615 407.36598878L570.8695226 586.97533538l-46.92900624-51.37198907zM829.67327279 702.49288911l-179.10774559-196.87967694 16.93887206-17.21655848 127.45807013-130.23493439h-153.00522143l113.85143518-277.68642727H441.18996105L398.42625126 192.66060865l-9.71902496 25.26946489-15.2727535-16.93887207-129.67956153-142.73082364-51.37198905 46.65131979 3.60992356 3.88761001 149.95067073 164.94573777 52.48273475 57.48109044 65.53399683 72.19847113 21.10416846 23.32565989 61.92407328 68.31086107 46.9290062 51.37198905 184.38378771 202.98877834 0.55537286-0.55537286 17.21655849-15.55043993 7.21984712 7.77521994 0.55537285-0.55537284-7.21984709-7.77521997 33.04468482-30.26782055z m-209.09787976-265.74591088l-16.93887204 17.21655846-8.05290639-8.88596567-8.60827922-9.44133852-7.49753356-8.33059281h50.53892975l-9.44133854 9.44133854z m-131.34568006-287.12776579h163.2796192l-91.08114814 221.87145539-9.99671135 24.71409201-14.99506709-16.38349921-94.96875812-104.41009666 9.71902496-25.26946489 38.04304054-100.52248664z" fill="" p-id="12124"></path></svg>