<svg t="1597305830953" class="icon" viewBox="0 0 1024 1024" version="1.1" xmlns="http://www.w3.org/2000/svg" p-id="1958" width="200" height="200"><path d="M85.333333 284.444444c-15.739259 0-28.444444-12.705185-28.444444-28.444444V132.740741c0-41.813333 34.038519-75.851852 75.851852-75.851852h123.259259c15.739259 0 28.444444 12.705185 28.444444 28.444444s-12.705185 28.444444-28.444444 28.444445H132.740741c-10.42963 0-18.962963 8.533333-18.962963 18.962963v123.259259c0 15.739259-12.705185 28.444444-28.444445 28.444444zM256 967.111111H132.740741c-41.813333 0-75.851852-34.038519-75.851852-75.851852V768c0-15.739259 12.705185-28.444444 28.444444-28.444444s28.444444 12.705185 28.444445 28.444444v123.259259c0 10.42963 8.533333 18.962963 18.962963 18.962963h123.259259c15.739259 0 28.444444 12.705185 28.444444 28.444445s-12.705185 28.444444-28.444444 28.444444zM891.259259 967.111111H768c-15.739259 0-28.444444-12.705185-28.444444-28.444444s12.705185-28.444444 28.444444-28.444445h123.259259c10.42963 0 18.962963-8.533333 18.962963-18.962963V768c0-15.739259 12.705185-28.444444 28.444445-28.444444s28.444444 12.705185 28.444444 28.444444v123.259259c0 41.813333-34.038519 75.851852-75.851852 75.851852zM938.666667 284.444444c-15.739259 0-28.444444-12.705185-28.444445-28.444444V132.740741c0-10.42963-8.533333-18.962963-18.962963-18.962963H768c-15.739259 0-28.444444-12.705185-28.444444-28.444445s12.705185-28.444444 28.444444-28.444444h123.259259c41.813333 0 75.851852 34.038519 75.851852 75.851852v123.259259c0 15.739259-12.705185 28.444444-28.444444 28.444444zM515.034074 568.983704c-94.056296 0-170.571852-76.515556-170.571852-170.571852S420.977778 227.84 515.034074 227.84 685.605926 304.355556 685.605926 398.411852s-76.515556 170.571852-170.571852 170.571852z m0-284.254815c-62.672593 0-113.682963 51.01037-113.682963 113.682963s51.01037 113.682963 113.682963 113.682963c62.672593 0 113.682963-51.01037 113.682963-113.682963s-51.01037-113.682963-113.682963-113.682963z" p-id="1959"></path><path d="M280.462222 796.444444c-15.739259 0-28.444444-12.705185-28.444444-28.444444 0-68.361481 26.642963-132.645926 74.903703-180.906667 48.355556-48.355556 112.545185-74.903704 180.906667-74.903703 15.739259 0 28.444444 12.705185 28.444445 28.444444s-12.705185 28.444444-28.444445 28.444445c-109.700741 0-199.016296 89.315556-199.016296 199.016296 0.094815 15.644444-12.61037 28.34963-28.34963 28.349629z" p-id="1960"></path><path d="M734.814815 796.444444c-15.739259 0-28.444444-12.705185-28.444445-28.444444 0-109.700741-89.315556-199.016296-199.016296-199.016296-15.739259 0-28.444444-12.705185-28.444444-28.444445s12.705185-28.444444 28.444444-28.444444c68.361481 0 132.645926 26.642963 180.906667 74.903704 48.355556 48.355556 74.903704 112.545185 74.903703 180.906666 0.094815 15.834074-12.61037 28.539259-28.349629 28.539259z" p-id="1961"></path></svg>