<?xml version="1.0" standalone="no"?><!DOCTYPE svg PUBLIC "-//W3C//DTD SVG 1.1//EN" "http://www.w3.org/Graphics/SVG/1.1/DTD/svg11.dtd"><svg t="1592016154998" class="icon" viewBox="0 0 1024 1024" version="1.1" xmlns="http://www.w3.org/2000/svg" p-id="5897" xmlns:xlink="http://www.w3.org/1999/xlink" width="128" height="128"><defs><style type="text/css"></style></defs><path d="M401.25 543.29H143.57A79.56 79.56 0 0 0 64 622.85v257.71a79.56 79.56 0 0 0 79.55 79.56h257.7a79.56 79.56 0 0 0 79.55-79.56V622.85a79.56 79.56 0 0 0-79.55-79.56z m22.22 323.16a36.33 36.33 0 0 1-36.33 36.34H157.68a36.33 36.33 0 0 1-36.33-36.34V637a36.33 36.33 0 0 1 36.33-36.34h229.46A36.33 36.33 0 0 1 423.47 637zM880.63 543.29H622.95a79.56 79.56 0 0 0-79.55 79.56v257.71a79.56 79.56 0 0 0 79.55 79.56h257.68a79.56 79.56 0 0 0 79.55-79.56V622.85a79.56 79.56 0 0 0-79.55-79.56z m22.22 323.16a36.33 36.33 0 0 1-36.33 36.34H637.06a36.33 36.33 0 0 1-36.33-36.34V637a36.33 36.33 0 0 1 36.33-36.34h229.46A36.33 36.33 0 0 1 902.85 637zM401.25 63.95H143.57A79.56 79.56 0 0 0 64 143.51v257.71a79.56 79.56 0 0 0 79.55 79.56h257.7a79.56 79.56 0 0 0 79.55-79.56V143.51a79.56 79.56 0 0 0-79.55-79.56z m22.22 323.15a36.33 36.33 0 0 1-36.33 36.34H157.68a36.33 36.33 0 0 1-36.33-36.34V157.62a36.33 36.33 0 0 1 36.33-36.34h229.46a36.33 36.33 0 0 1 36.33 36.34zM880.63 63.95H622.95a79.56 79.56 0 0 0-79.55 79.56v257.71a79.56 79.56 0 0 0 79.55 79.56h257.68a79.56 79.56 0 0 0 79.55-79.56V143.51a79.56 79.56 0 0 0-79.55-79.56z m22.22 323.15a36.33 36.33 0 0 1-36.33 36.34H637.06a36.33 36.33 0 0 1-36.33-36.34V157.62a36.33 36.33 0 0 1 36.33-36.34h229.46a36.33 36.33 0 0 1 36.33 36.34z" p-id="5898"></path></svg>