<?xml version="1.0" standalone="no"?><!DOCTYPE svg PUBLIC "-//W3C//DTD SVG 1.1//EN" "http://www.w3.org/Graphics/SVG/1.1/DTD/svg11.dtd"><svg t="1592016173463" class="icon" viewBox="0 0 1433 1024" version="1.1" xmlns="http://www.w3.org/2000/svg" p-id="6199" xmlns:xlink="http://www.w3.org/1999/xlink" width="179.125" height="128"><defs><style type="text/css"></style></defs><path d="M1227.7984197 554.39540939H425.53385296c-24.0029728 0-43.45002109-18.98301874-43.45002108-42.39540939 0-23.45457486 19.44704828-42.4375936 43.45002109-42.4375936h802.26456673c24.0029728 0 43.40783689 18.98301874 43.40783607 42.4375936 0 23.41238983-19.40486407 42.39540939-43.40783607 42.39540939z m0-379.36508862H425.53385296c-24.0029728 0-43.45002109-19.02520376-43.45002108-42.4375936C382.08383188 109.13815314 401.53088016 90.15513357 425.53385296 90.15513357h802.26456674c24.0029728 0 43.40783689 18.98301874 43.40783607 42.4375936 0 23.41238983-19.40486407 42.4375936-43.40783607 42.4375936zM209.67583533 933.8026814H133.6172053c-24.0029728 0-43.45002109-18.98301874-43.4500211-42.39540857 0-23.45457486 19.44704828-42.4375936 43.4500211-42.4375936h76.05863003c24.0029728 0 43.40783689 18.98301874 43.40783605 42.4375936 0 23.41238983-19.40486407 42.39540939-43.40783605 42.39540857z m0-379.40727201H133.6172053c-24.0029728 0-43.45002109-18.98301874-43.4500211-42.39540939 0-23.45457486 19.44704828-42.4375936 43.4500211-42.4375936h76.05863003c24.0029728 0 43.40783689 18.98301874 43.40783605 42.4375936 0 23.41238983-19.40486407 42.39540939-43.40783605 42.39540939z m0-379.36508862H133.6172053c-24.0029728 0-43.45002109-19.02520376-43.4500211-42.4375936C90.1671842 109.13815314 109.61423247 90.15513357 133.6172053 90.15513357h76.05863003c24.0029728 0 43.40783689 18.98301874 43.40783605 42.4375936 0 23.41238983-19.40486407 42.4375936-43.40783605 42.4375936z m215.85801763 673.93935846h802.26456674c24.0029728 0 43.40783689 18.98301874 43.40783607 42.4375936 0 23.41238983-19.40486407 42.39540939-43.40783607 42.39540857H425.53385296c-24.0029728 0-43.45002109-18.98301874-43.45002108-42.39540857 0-23.45457486 19.44704828-42.4375936 43.45002109-42.4375936z" p-id="6200"></path></svg>