<svg t="1597307279044" class="icon" viewBox="0 0 1024 1024" version="1.1" xmlns="http://www.w3.org/2000/svg" p-id="4511" width="200" height="200"><path d="M203.662222 545.848889c-5.594074 0-11.282963-2.180741-15.454815-6.637037-38.874074-40.77037-60.207407-94.151111-60.207407-150.471111 0-58.216296 22.660741-113.019259 63.905185-154.168889C233.054815 193.327407 287.857778 170.666667 346.074074 170.666667c64.663704 0 124.776296 28.16 165.925926 76.515555 41.14963-48.355556 101.262222-76.515556 165.925926-76.515555 58.216296 0 113.019259 22.660741 154.168889 63.905185C873.339259 275.721481 896 330.524444 896 388.740741c0 26.737778-4.835556 52.906667-14.222222 77.653333-4.171852 10.998519-16.497778 16.497778-27.496297 12.325926-10.998519-4.171852-16.497778-16.497778-12.325925-27.496296 7.585185-19.911111 11.472593-40.96 11.472592-62.482963 0-96.711111-78.696296-175.407407-175.407407-175.407408-60.207407 0-115.484444 30.340741-147.911111 81.161482-3.887407 6.162963-10.714074 9.860741-18.014815 9.860741s-14.032593-3.697778-18.014815-9.860741C461.558519 243.674074 406.281481 213.333333 346.074074 213.333333c-96.711111 0-175.407407 78.696296-175.407407 175.407408 0 45.321481 17.161481 88.272593 48.45037 120.983703 8.154074 8.533333 7.774815 21.997037-0.758518 30.151112-4.077037 3.982222-9.386667 5.973333-14.696297 5.973333zM512.474074 891.259259c-5.025185 0-10.145185-1.801481-14.222222-5.404444-8.817778-7.86963-9.576296-21.333333-1.706667-30.151111L811.614815 502.234074c7.86963-8.817778 21.333333-9.576296 30.151111-1.706667 8.817778 7.86963 9.576296 21.333333 1.706667 30.151112L528.402963 884.148148c-4.171852 4.740741-10.05037 7.111111-15.928889 7.111111z" p-id="4512"></path><path d="M512.474074 891.259259c-5.878519 0-11.662222-2.37037-15.928889-7.111111L187.828148 538.737778c-7.86963-8.817778-7.111111-22.281481 1.706667-30.151111s22.281481-7.111111 30.151111 1.706666l308.717037 345.410371c7.86963 8.817778 7.111111 22.281481-1.706667 30.151111-4.077037 3.602963-9.197037 5.404444-14.222222 5.404444zM486.874074 556.562963c-6.068148 0-11.851852-2.56-15.928889-7.111111L415.668148 487.348148H312.414815v-42.666667h112.829629c6.068148 0 11.851852 2.56 15.928889 7.111112l42.951111 48.165926 86.281482-134.637038c3.792593-5.973333 10.24-9.576296 17.351111-9.86074 7.016296-0.18963 13.748148 3.034074 17.92 8.722963l53.380741 73.197037H861.866667v42.666666H648.059259c-6.826667 0-13.179259-3.223704-17.256296-8.722963l-41.339259-56.699259-84.66963 132.077037c-3.602963 5.594074-9.671111 9.197037-16.308148 9.765926-0.474074 0.094815-1.042963 0.094815-1.611852 0.094815z" p-id="4513"></path></svg>