<svg t="1597308168063" class="icon" viewBox="0 0 1024 1024" version="1.1" xmlns="http://www.w3.org/2000/svg" p-id="12993" width="200" height="200"><path d="M877.860571 1024h-731.428571V575.634286a365.714286 365.714286 0 0 1 365.714286-283.062857 365.714286 365.714286 0 0 1 365.714285 283.062857v15.36z m-585.142857-146.285714h438.857143V599.771429a219.428571 219.428571 0 0 0-219.428571-160.914286 219.428571 219.428571 0 0 0-219.428572 160.914286zM21.796571 198.363429l103.497143-103.424 146.285715 146.358857-103.424 103.424zM439.003429 0h146.285714v219.428571h-146.285714zM752.786286 241.225143l146.358857-146.358857 103.497143 103.424-146.358857 146.358857z" fill="#727171" p-id="12994"></path></svg>