<svg t="1597305339634" class="icon" viewBox="0 0 1024 1024" version="1.1" xmlns="http://www.w3.org/2000/svg" p-id="1192" width="200" height="200"><path d="M672 960a32 32 0 1 1 0 64h-320a32 32 0 1 1 0-64h320zM512 0a384 384 0 0 1 384 384c0 141.44-128 312.064-384 512-256-199.936-384-370.56-384-512a384 384 0 0 1 384-384z m0 64C335.296 64 192 216.704 192 384c0 111.552 106.688 254.976 320 430.272 213.312-175.36 320-318.72 320-430.272 0-167.296-143.296-320-320-320z m0 128a192 192 0 1 1 0 384 192 192 0 0 1 0-384z m0 64a128 128 0 1 0 0 256 128 128 0 0 0 0-256z" p-id="1193"></path></svg>