<?xml version="1.0" standalone="no"?><!DOCTYPE svg PUBLIC "-//W3C//DTD SVG 1.1//EN" "http://www.w3.org/Graphics/SVG/1.1/DTD/svg11.dtd"><svg t="1592637715894" class="icon" viewBox="0 0 1024 1024" version="1.1" xmlns="http://www.w3.org/2000/svg" p-id="3131" xmlns:xlink="http://www.w3.org/1999/xlink" width="128" height="128"><defs><style type="text/css"></style></defs><path d="M486.56 64.81c41.7-4.55 84.66 2.22 122.72 19.95 33.48 15.47 63.14 39.09 85.73 68.24 22.29 28.58 37.68 62.49 44.48 98.09 7.85 40.85 4.61 83.82-9.61 122.93-12.51 34.7-33.55 66.25-60.64 91.26-27.47 25.42-61.17 44.09-97.36 53.67-38.72 10.34-80.12 10.42-118.87 0.24-34.46-8.98-66.72-26.18-93.5-49.64-29.39-25.64-52.15-58.83-65.4-95.52-19.98-54.82-18.14-117.18 5.09-170.71 14.76-34.2 37.88-64.74 66.83-88.17 34.23-27.9 76.61-45.65 120.53-50.34m7.07 46.05c-32.96 3.2-64.97 15.55-91.54 35.3-29.83 21.98-52.88 53.09-64.99 88.13-10.14 28.98-12.79 60.52-7.81 90.8 4.54 28.08 15.77 55.03 32.42 78.08 19.93 27.74 47.66 49.81 79.21 62.91 35.18 14.73 74.96 18.08 112.13 9.58 36.87-8.26 70.92-28.34 96.2-56.39 23.29-25.61 39.16-57.89 45.09-92 6.58-37.06 1.56-76.11-14.43-110.2-15.64-33.7-41.71-62.42-73.68-81.33-33.59-20.06-73.69-28.82-112.6-24.88z" p-id="3132"></path><path d="M296.94 486.89c7.44-2.52 16-0.88 22.11 4.01 43.54 32.24 95.02 53.87 148.73 61.41 6.64 0.88 12.91 4.65 16.51 10.34 4.61 6.92 5.01 16.35 1.09 23.67-2.13 4.63-6.99 7.28-8.93 12.03-3.25 6.73-1.56 15.28 3.77 20.46 6.52 6.5 12.91 13.12 19.58 19.47 6.89 6.36 18.3 6.03 24.98-0.45 6.52-6.5 13.03-13 19.51-19.52 5.61-5.67 6.63-15.22 2.4-21.96-1.86-3.07-4.85-5.21-6.8-8.2-5.12-7.67-4.94-18.44 0.33-25.99 3.75-5.59 10.07-9.2 16.73-9.94 53.69-7.57 105.1-29.35 148.61-61.6 7.96-6.33 20.09-6.55 28.19-0.35 50.4 37.32 91.74 86.45 121.26 141.7 28.8 53.6 46.37 113 52.72 173.45 0.35 0.16 1.03 0.5 1.38 0.66 15.85 0.79 31.39 6.9 43.39 17.32 14.75 12.56 23.97 31.34 24.86 50.69 0.31 11.62 0.68 23.53-2.78 34.77-5.95 20.84-21.94 38.42-42.06 46.43-9.34 3.8-19.48 5.38-29.53 5.22-257.99-0.02-515.98 0-773.97-0.01-6.35-0.06-12.72 0.26-19.04-0.54-18.51-2.07-36.02-11.8-47.58-26.4C52.11 920.81 46.34 904.4 46.74 888c0.15-7.39-0.48-14.84 0.89-22.15 3.11-18.92 14.21-36.35 30.06-47.15 11.32-7.99 25.04-12.09 38.8-12.78 8.11-80.82 37.14-159.73 85.03-225.48 23.64-32.5 51.81-61.76 83.71-86.23 3.67-2.78 7.24-5.91 11.71-7.32m-47.98 108.12c-46.71 58.85-75.76 131.05-85.05 205.48 87.71 0.02 175.42 0.01 263.13 0-1.65-16.93-0.66-34.41 5.12-50.52 10.47-27.3 21.04-54.57 31.56-81.85-9.4-10.18-20.97-18.72-27.54-31.19-7.37-13.4-9.66-29.42-6.56-44.38-44.4-10.45-86.87-29.01-124.64-54.57-20.67 16.9-39.46 36.09-56.02 57.03m470.33-57.03c-37.87 25.44-80.27 44.25-124.75 54.52 2.83 14.51 0.94 30.01-5.98 43.13-6.48 13.13-18.37 22.18-28.2 32.64 10.02 26.05 20.08 52.08 30.14 78.12 6.93 17.06 8.24 35.92 6.46 54.1 87.78 0.01 175.56 0.02 263.34 0-5.46-43.15-17.35-85.51-35.63-124.99-24.37-52.87-60.27-100.6-105.38-137.52M505.58 689.21c-8.81 22.91-17.66 45.81-26.5 68.72-1.7 4.61-3.86 9.12-4.75 14-1.92 9.37-1.71 19.09-0.2 28.51 25.25 0.12 50.5 0.04 75.75 0.04 1.78-11.41 1.86-23.41-1.84-34.45-9.86-25.61-19.77-51.21-29.63-76.82-4.27 0.34-8.56 0.35-12.83 0M111.35 853.6c-10.5 3-18.48 13.4-18.12 24.4 0.29 6.66-0.95 13.66 1.75 19.99 3.72 9.59 13.67 16.16 23.93 16 259.03 0.02 518.06 0.01 777.09 0.01 6.31-0.12 12.93 0.68 18.89-1.87 9.33-3.6 15.95-13.09 16.07-23.1-0.07-7.22 0.93-14.89-2.36-21.61-4.01-9.1-13.72-15.13-23.64-14.92-259.33 0.01-518.67 0-778 0-5.21 0.06-10.55-0.44-15.61 1.1z" p-id="3133"></path></svg>